# Blender 3.3.1
# www.blender.org
mtllib bulletlauncher.mtl
o Cube
v -0.900000 -1.000000 0.900000
v -0.900000 -0.900000 1.000000
v -1.000000 -0.900000 0.900000
v -0.900000 0.900000 1.000000
v -0.900000 1.000000 0.900000
v -1.000000 0.900000 0.900000
v -0.900000 -1.000000 -0.900000
v -1.000000 -0.900000 -0.900000
v -0.900000 -0.900000 -1.000000
v -0.900000 1.000000 -0.900000
v -0.900000 0.900000 -1.000000
v -1.000000 0.900000 -0.900000
v 1.000000 -0.900000 0.900000
v 0.900000 -0.900000 1.000000
v 0.900000 -1.000000 0.900000
v 0.900000 1.000000 0.900000
v 0.900000 0.900000 1.000000
v 1.000000 0.900000 0.900000
v 0.900000 -1.000000 -0.900000
v 0.900000 -0.900000 -1.000000
v 1.000000 -0.900000 -0.900000
v 0.900000 1.000000 -0.900000
v 1.000000 0.900000 -0.900000
v 0.900000 0.900000 -1.000000
v 0.900000 -0.690481 0.590481
v 0.900000 -0.590481 0.690481
v 1.000000 -0.790481 0.790481
v 0.900000 0.690481 0.590481
v 1.000000 0.790481 0.790481
v 0.900000 0.590481 0.690481
v 0.900000 -0.590481 -0.690481
v 0.900000 -0.690481 -0.590481
v 1.000000 -0.790481 -0.790481
v 0.900000 0.590481 -0.690481
v 1.000000 0.790481 -0.790481
v 0.900000 0.690481 -0.590481
v -0.606154 -0.690481 0.590481
v -0.706154 -0.590481 0.590481
v -0.606154 -0.590481 0.690481
v -0.606154 0.690481 0.590481
v -0.606154 0.590481 0.690481
v -0.706154 0.590481 0.590481
v -0.606154 -0.590481 -0.690481
v -0.706154 -0.590481 -0.590481
v -0.606154 -0.690481 -0.590481
v -0.606154 0.590481 -0.690481
v -0.606154 0.690481 -0.590481
v -0.706154 0.590481 -0.590481
vn -0.0000 -0.0000 1.0000
vn 1.0000 -0.0000 -0.0000
vn -0.0000 1.0000 -0.0000
vn -1.0000 -0.0000 -0.0000
vn -0.0000 -0.0000 -1.0000
vn -0.0000 -1.0000 -0.0000
vn -0.5774 -0.5774 0.5774
vn -0.5774 0.5774 0.5774
vn -0.5774 -0.5774 -0.5774
vn -0.5774 0.5774 -0.5774
vn 0.5774 -0.5774 0.5774
vn 0.5774 0.5774 0.5774
vn 0.5774 -0.5774 -0.5774
vn 0.5774 0.5774 -0.5774
vn 0.9045 0.3015 -0.3015
vn 0.9045 -0.3015 -0.3015
vn 0.9045 0.3015 0.3015
vn 0.9045 -0.3015 0.3015
vn -0.7071 -0.7071 -0.0000
vn -0.7071 -0.0000 0.7071
vn -0.7071 0.7071 -0.0000
vn -0.7071 -0.0000 -0.7071
vn -0.0000 -0.7071 -0.7071
vn -0.0000 0.7071 -0.7071
vn 0.7071 -0.0000 -0.7071
vn 0.7071 -0.7071 -0.0000
vn 0.7071 0.7071 -0.0000
vn 0.7071 -0.0000 0.7071
vn -0.0000 -0.7071 0.7071
vn -0.0000 0.7071 0.7071
vt 0.137500 0.737500
vt 0.387500 0.987500
vt 0.387500 0.000000
vt 0.137500 0.750000
vt 0.125000 0.737500
vt 0.387500 0.012500
vt 0.612500 0.000000
vt 0.612500 0.987500
vt 0.862500 0.737500
vt 0.625000 0.012500
vt 0.625000 0.987500
vt 0.612500 0.012500
vt 0.137500 0.512500
vt 0.125000 0.512500
vt 0.387500 0.237500
vt 0.387500 0.262500
vt 0.137500 0.500000
vt 0.862500 0.512500
vt 0.625000 0.237500
vt 0.625000 0.262500
vt 0.612500 0.250000
vt 0.612500 0.262500
vt 0.612500 0.237500
vt 0.375000 0.737500
vt 0.375000 0.750000
vt 0.387500 0.762500
vt 0.362500 0.750000
vt 0.362500 0.737500
vt 0.637500 0.737500
vt 0.625000 0.762500
vt 0.612500 0.762500
vt 0.612500 0.750000
vt 0.625000 0.750000
vt 0.362500 0.512500
vt 0.362500 0.500000
vt 0.387500 0.487500
vt 0.375000 0.512500
vt 0.375000 0.500000
vt 0.625000 0.487500
vt 0.637500 0.512500
vt 0.612500 0.500000
vt 0.625000 0.500000
vt 0.612500 0.487500
vt 0.375000 0.731897
vt 0.393103 0.750000
vt 0.375000 0.750000
vt 0.625000 0.731897
vt 0.625000 0.750000
vt 0.606897 0.750000
vt 0.393103 0.500000
vt 0.375000 0.518103
vt 0.375000 0.500000
vt 0.606897 0.500000
vt 0.625000 0.500000
vt 0.625000 0.518103
vt 0.375000 0.731897
vt 0.393103 0.731897
vt 0.393103 0.750000
vt 0.625000 0.731897
vt 0.606897 0.750000
vt 0.606897 0.731897
vt 0.393103 0.500000
vt 0.393103 0.518103
vt 0.375000 0.518103
vt 0.606897 0.500000
vt 0.625000 0.518103
vt 0.606897 0.518103
s 0
f 14/26/1 17/31/1 4/8/1 2/2/1
f 13/25/2 21/38/2 33/52/2 27/46/2
f 25/44/3 32/51/3 45/64/3 37/56/3
f 22/40/3 10/18/3 5/9/3 16/29/3
f 3/6/4 6/12/4 12/23/4 8/15/4
f 9/16/5 11/22/5 24/43/5 20/36/5
f 36/55/6 28/47/6 40/59/6 47/66/6
f 23/42/2 18/33/2 29/48/2 35/54/2
f 18/33/2 13/25/2 27/46/2 29/48/2
f 21/38/2 23/42/2 35/54/2 33/52/2
f 30/49/5 26/45/5 39/58/5 41/60/5
f 31/50/1 34/53/1 46/65/1 43/62/1
f 44/63/2 48/67/2 42/61/2 38/57/2
f 1/1/7 2/4/7 3/5/7
f 4/7/8 5/10/8 6/12/8
f 7/13/9 8/14/9 9/17/9
f 10/19/10 11/21/10 12/23/10
f 13/24/11 14/27/11 15/28/11
f 16/30/12 17/31/12 18/32/12
f 19/34/13 20/35/13 21/37/13
f 22/39/14 23/41/14 24/43/14
f 25/44/15 26/45/15 27/46/15
f 28/47/16 29/48/16 30/49/16
f 31/50/17 32/51/17 33/52/17
f 34/53/18 35/54/18 36/55/18
f 37/56/14 38/57/14 39/58/14
f 40/59/13 41/60/13 42/61/13
f 43/62/12 44/63/12 45/64/12
f 46/65/11 47/66/11 48/67/11
f 7/13/19 1/1/19 3/5/19 8/14/19
f 2/3/20 4/7/20 6/12/20 3/6/20
f 5/10/21 10/19/21 12/23/21 6/12/21
f 11/22/22 9/16/22 8/15/22 12/23/22
f 19/34/23 7/13/23 9/17/23 20/35/23
f 10/20/24 22/39/24 24/43/24 11/22/24
f 23/42/25 21/38/25 20/36/25 24/43/25
f 15/28/26 19/34/26 21/38/26 13/25/26
f 22/40/27 16/29/27 18/33/27 23/42/27
f 17/31/28 14/26/28 13/25/28 18/33/28
f 1/1/29 15/28/29 14/27/29 2/4/29
f 16/30/30 5/11/30 4/8/30 17/31/30
f 34/53/28 31/50/28 33/52/28 35/54/28
f 27/46/27 33/52/27 32/51/27 25/44/27
f 35/54/26 29/48/26 28/47/26 36/55/26
f 29/48/25 27/46/25 26/45/25 30/49/25
f 48/67/28 44/63/28 43/62/28 46/65/28
f 37/56/27 45/64/27 44/63/27 38/57/27
f 47/66/26 40/59/26 42/61/26 48/67/26
f 41/60/25 39/58/25 38/57/25 42/61/25
f 25/44/24 37/56/24 39/58/24 26/45/24
f 40/59/23 28/47/23 30/49/23 41/60/23
f 31/50/30 43/62/30 45/64/30 32/51/30
f 46/65/29 34/53/29 36/55/29 47/66/29
f 7/13/6 19/34/6 15/28/6 1/1/6
